<?xml version="1.0" encoding="UTF-8"?>
<svg id="Layer_1" data-name="Layer 1" xmlns="http://www.w3.org/2000/svg" viewBox="0 0 3000 3000">
  <defs>
    <style>
      .cls-1 {
        fill: #0c0f0a;
      }

      .cls-1, .cls-2 {
        stroke-width: 0px;
      }

      .cls-2 {
        fill: #ff206e
      }
    </style>
  </defs>
  <rect class="cls-1" x="0" y="0" width="3000" height="3000"/>
  <path class="cls-2" d="m694.84,2257.26l383.26-574.89c46.37-67.99,68.01-126.73,68.01-182.36,0-52.54-18.55-105.08-61.83-169.99l-389.43-587.26h346.16s309.07,460.54,309.07,460.54c30.93,46.37,55.64,98.91,68.01,151.45h163.82c15.45-52.54,37.09-105.08,67.99-151.45l306.01-460.54h349.26s-389.45,587.26-389.45,587.26c-43.27,64.91-61.81,117.45-61.81,169.99,0,55.64,21.63,114.37,67.99,182.36l383.27,574.89h-346.18s-309.09-457.44-309.09-457.44c-34-52.54-58.72-108.18-74.18-166.91h-151.45c-15.45,58.74-40.17,114.37-74.18,166.91l-309.07,457.44h-346.16Z"/>
</svg>
